<svg width="37" height="37" viewBox="0 0 37 37" fill="none" xmlns="http://www.w3.org/2000/svg">
<rect width="37" height="37" rx="8" fill="url(#paint0_linear_6_3)"/>
<path d="M10.4051 15.5955L13.5541 24.046L15.7718 18.3676L18.0003 24.0423L21.7327 14.0301H20.0296L18.0475 19.7555L15.7573 14.0192L13.4925 19.7519L11.5212 14.0301H8.6911C10.4268 10.2832 14.21 7.67777 18.6019 7.67777C24.6281 7.67777 29.5309 12.5806 29.5309 18.6068C29.5309 19.1069 29.4874 19.5924 29.4186 20.0744H31.1145C31.1724 19.5924 31.2087 19.1032 31.2087 18.6068C31.2087 11.6566 25.5521 6 18.6019 6C12.7025 6 7.74894 10.0803 6.38281 15.5665L9.62964 15.5955H10.4015H10.4051Z" fill="white"/>
<path d="M23.8862 21.6326C23.8862 20.7267 23.8862 19.8171 23.8862 18.9112H27.3867V17.4038H23.8862V15.505H27.3867V14.0156H22.3099V23.1401H28.5318C27.1004 26.2854 24.0855 28.6662 20.6901 29.3329C17.2947 29.9961 13.6058 28.9307 11.091 26.5536C8.57615 24.1764 7.30061 20.5564 7.77169 17.1284H6.08306C5.58661 21.3029 7.3441 25.6803 10.5945 28.3509C13.845 31.018 18.4797 31.8949 22.4802 30.5976C24.7523 29.8584 26.7779 28.4306 28.2999 26.5934C29.4957 25.1476 30.3799 23.4372 30.8292 21.6109" fill="white"/>
<defs>
<linearGradient id="paint0_linear_6_3" x1="6.03927" y1="-2.99613e-07" x2="30.9607" y2="37" gradientUnits="userSpaceOnUse">
<stop offset="0.18" stop-color="#31C56C"/>
<stop offset="0.42" stop-color="#29AB5D"/>
<stop offset="0.695" stop-color="#1E904B"/>
</linearGradient>
</defs>
</svg>
